Coordinates
version=1
nRows=11
nColumns=63
inDegrees=yes

Units are S.I. units (second, meters, Newtons, ...)
If the header above contains a line with 'inDegrees', this indicates whether rotational values are in degrees (yes) or radians (no).

endheader
time	pelvis_tilt	pelvis_list	pelvis_rotation	pelvis_tx	pelvis_ty	pelvis_tz	hip_flexion_r	hip_adduction_r	hip_rotation_r	knee_angle_r	knee_angle_r_beta	ankle_angle_r	subtalar_angle_r	mtp_angle_r	hip_flexion_l	hip_adduction_l	hip_rotation_l	knee_angle_l	knee_angle_l_beta	ankle_angle_l	subtalar_angle_l	mtp_angle_l	L5_S1_Flex_Ext	L5_S1_Lat_Bending	L5_S1_axial_rotation	L4_L5_Flex_Ext	L4_L5_Lat_Bending	L4_L5_axial_rotation	L3_L4_Flex_Ext	L3_L4_Lat_Bending	L3_L4_axial_rotation	L2_L3_Flex_Ext	L2_L3_Lat_Bending	L2_L3_axial_rotation	L1_L2_Flex_Ext	L1_L2_Lat_Bending	L1_L2_axial_rotation	L1_T12_Flex_Ext	L1_T12_Lat_Bending	L1_T12_axial_rotation	Abs_r3	Abs_r2	Abs_r1	Abs_t1	Abs_t2	neck_flexion	neck_bending	neck_rotation	arm_flex_r	arm_add_r	arm_rot_r	elbow_flex_r	pro_sup_r	wrist_flex_r	wrist_dev_r	arm_flex_l	arm_add_l	arm_rot_l	elbow_flex_l	pro_sup_l	wrist_flex_l	wrist_dev_l
1.440678	-5.445130	-6.756144	76.735277	0.266216	0.563840	0.660293	7.810997	-3.255451	-12.788930	7.415580	0.129426	25.192827	14.547517	0.000000	10.163249	1.711852	-7.359861	10.342917	0.180518	23.010882	13.227388	0.000000	-0.204665	0.422864	0.086329	-0.380084	0.562409	0.091725	-0.336244	1.028152	0.091725	-0.233912	1.028152	0.075538	-0.190052	0.862304	0.070143	-0.116946	0.655016	0.064747	-1.461903	4.783523	0.480138	0.000000	0.000000	17.200385	1.632362	-2.410323	9.269167	-7.858679	66.599017	40.511732	11.297109	-3.162869	5.382267	14.117838	-4.721530	63.904153	44.380657	56.141129	-7.533726	5.342970
1.457627	-5.604409	-6.848051	76.592184	0.267006	0.563918	0.660529	7.979993	-3.355291	-12.859900	7.427940	0.129642	25.333355	14.915554	0.000000	10.404080	1.740889	-7.820236	10.634933	0.185615	23.088585	13.519424	0.000000	-0.197652	0.379877	0.164757	-0.367060	0.505236	0.175054	-0.324723	0.923632	0.175054	-0.225897	0.923632	0.144163	-0.183540	0.774645	0.133865	-0.112939	0.588429	0.123568	-1.411811	4.297242	0.916330	0.000000	0.000000	17.624451	0.979617	-2.628899	9.017839	-7.721881	65.846543	40.626186	11.732824	-3.105809	5.030843	14.309563	-4.948914	65.042699	44.468051	56.796779	-8.005135	4.646736
1.474576	-5.770984	-6.950411	76.459373	0.267786	0.563926	0.660855	8.164744	-3.453166	-12.880116	7.440842	0.129867	25.419872	15.168934	0.000000	10.680714	1.776883	-8.221280	10.955819	0.191215	23.170839	13.732369	0.000000	-0.186933	0.335131	0.244887	-0.347153	0.445725	0.260192	-0.307112	0.814838	0.260192	-0.213645	0.814838	0.214276	-0.173586	0.683400	0.198970	-0.106813	0.519119	0.183665	-1.335241	3.791073	1.361986	0.000000	0.000000	17.919788	0.420737	-2.755745	8.777682	-7.588698	65.029121	40.739339	12.305308	-3.042367	4.799029	14.529128	-5.154134	66.196870	44.558468	57.229239	-8.510400	4.019526
1.491525	-5.934367	-7.047324	76.324754	0.268546	0.563898	0.661257	8.347899	-3.543720	-12.832529	7.458771	0.130180	25.446392	15.296721	0.000000	10.966322	1.816616	-8.551506	11.290154	0.197050	23.251168	13.839529	0.000000	-0.174331	0.290056	0.330364	-0.323750	0.385775	0.351012	-0.286409	0.705242	0.351012	-0.199243	0.705242	0.289069	-0.161884	0.591482	0.268421	-0.099613	0.449297	0.247773	-1.245230	3.281172	1.837387	0.000000	0.000000	18.023240	-0.022327	-2.798235	8.553774	-7.471385	64.181148	40.858701	12.884542	-3.016950	4.648854	14.792590	-5.315560	67.377771	44.608112	57.542971	-9.002854	3.472327
1.508475	-6.105887	-7.131777	76.140325	0.269327	0.563840	0.661729	8.542680	-3.636221	-12.679151	7.503672	0.130964	25.419544	15.307694	0.000000	11.236769	1.866917	-8.871353	11.598896	0.202439	23.318260	13.869591	0.000000	-0.160196	0.244147	0.427905	-0.297501	0.324716	0.454649	-0.263186	0.593619	0.454649	-0.183088	0.593619	0.374417	-0.148758	0.497865	0.347673	-0.091536	0.378184	0.320929	-1.144266	2.761841	2.379879	0.000000	0.000000	17.932813	-0.320917	-2.703670	8.339698	-7.371310	63.270019	40.977052	13.564746	-2.984881	4.673726	15.090322	-5.437155	68.575070	44.607963	57.675317	-9.470288	2.960409
1.525424	-6.274956	-7.192449	75.901833	0.270178	0.563796	0.662226	8.724299	-3.719203	-12.412152	7.560283	0.131952	25.323517	15.195547	0.000000	11.459064	1.920974	-9.186017	11.849389	0.206811	23.355463	13.828176	0.000000	-0.145581	0.198671	0.533659	-0.270359	0.264233	0.567013	-0.239176	0.483050	0.567013	-0.166385	0.483050	0.466952	-0.135187	0.405131	0.433598	-0.083185	0.307742	0.400244	-1.039873	2.247411	2.968052	0.000000	0.000000	17.635831	-0.499826	-2.451727	8.139907	-7.253583	62.321664	41.035028	14.371849	-2.972134	4.863502	15.392821	-5.528567	69.747566	44.561421	57.577411	-9.923154	2.462554
1.542373	-6.438802	-7.252312	75.646791	0.271013	0.563725	0.662775	8.922559	-3.799401	-12.140039	7.650623	0.133529	25.201046	15.082640	0.000000	11.688452	1.969519	-9.473305	12.100699	0.211197	23.387266	13.735959	0.000000	-0.128375	0.153832	0.643950	-0.238406	0.204597	0.684197	-0.210908	0.374027	0.684197	-0.146720	0.374027	0.563456	-0.119209	0.313694	0.523209	-0.073354	0.238286	0.482963	-0.916972	1.740178	3.581457	0.000000	0.000000	17.172790	-0.541606	-2.154628	7.937237	-7.151260	61.411798	41.136087	14.340272	-3.067546	5.238498	15.643744	-5.579275	70.632173	44.457470	57.772063	-10.179993	2.238912
1.559322	-6.597172	-7.280063	75.370297	0.271901	0.563697	0.663316	9.083014	-3.864935	-11.695688	7.730749	0.134927	25.010180	14.734388	0.000000	11.854137	2.027862	-9.705875	12.278537	0.214301	23.374563	13.560372	0.000000	-0.112420	0.109285	0.757903	-0.208776	0.145349	0.805272	-0.184695	0.265716	0.805272	-0.128485	0.265716	0.663165	-0.104393	0.222854	0.615796	-0.064237	0.169283	0.568427	-0.803007	1.236255	4.215228	0.000000	0.000000	16.567889	-0.498357	-1.783569	7.763981	-7.034632	60.659385	41.169341	13.915706	-3.220632	5.652431	15.946957	-5.610219	71.691257	44.310757	57.510182	-10.478672	1.890236
1.576271	-6.744377	-7.284460	75.064503	0.272827	0.563705	0.663817	9.219543	-3.920942	-11.212974	7.817916	0.136448	24.794731	14.355424	0.000000	11.959005	2.087178	-9.916924	12.380025	0.216072	23.328334	13.340381	0.000000	-0.097171	0.067175	0.867572	-0.180456	0.089343	0.921796	-0.159642	0.163330	0.921796	-0.111056	0.163330	0.759126	-0.090233	0.136984	0.704903	-0.055523	0.104055	0.650679	-0.694081	0.759902	4.825178	0.000000	0.000000	15.857457	-0.416155	-1.273004	7.613695	-6.887522	59.903387	41.102899	14.464006	-3.295505	6.102322	16.187481	-5.620378	72.563528	44.145956	57.127945	-10.697859	1.570305
1.593220	-6.869831	-7.277345	74.739923	0.273792	0.563744	0.664238	9.329012	-3.950229	-10.670100	7.891485	0.137732	24.555657	13.915585	0.000000	12.002055	2.135427	-10.101967	12.390419	0.216254	23.248685	13.086103	0.000000	-0.081042	0.028761	0.970328	-0.150503	0.038252	1.030974	-0.133144	0.069929	1.030974	-0.092623	0.069929	0.849037	-0.075255	0.058649	0.788392	-0.046307	0.044551	0.727746	-0.578874	0.325348	5.396675	0.000000	0.000000	15.084648	-0.300190	-0.657693	7.463360	-6.698822	59.109385	40.937082	15.823547	-3.299820	6.608290	16.378462	-5.624683	73.317386	43.978031	56.536032	-10.861058	1.270124
1.610169	-6.968379	-7.244952	74.409709	0.274762	0.563840	0.664562	9.395044	-3.956854	-10.106899	7.953311	0.138811	24.306636	13.447702	0.000000	11.961433	2.176081	-10.255134	12.301349	0.214699	23.142635	12.819097	0.000000	-0.067538	-0.004889	1.057098	-0.125426	-0.006503	1.123166	-0.110959	-0.011888	1.123166	-0.077190	-0.011888	0.924961	-0.062716	-0.009971	0.858892	-0.038591	-0.007574	0.792823	-0.482420	-0.055310	5.879261	0.000000	0.000000	14.287515	-0.174330	0.122815	7.357142	-6.489581	58.410932	40.691637	17.973176	-3.208899	7.134479	16.501846	-5.647504	73.907003	43.848003	55.734849	-10.976791	0.961150
